<svg width="250" height="18" viewBox="0 0 250 18" fill="none" xmlns="http://www.w3.org/2000/svg">
<path d="M59.19 13H62.256C63.866 13 65.098 12.132 65.098 10.27C65.098 8.422 63.852 7.554 62.256 7.554H60.142V4.544H64.496V3.648H59.19V13ZM60.142 12.104V8.45H62.186C63.222 8.45 64.104 8.968 64.104 10.27C64.104 11.586 63.236 12.104 62.186 12.104H60.142ZM69.1006 13.168C70.8646 13.168 71.9286 11.824 71.9286 9.71C71.9286 7.596 70.8646 6.266 69.1006 6.266C67.3506 6.266 66.2726 7.596 66.2726 9.71C66.2726 11.824 67.3506 13.168 69.1006 13.168ZM69.1006 12.314C67.8546 12.314 67.2246 11.348 67.2246 9.71C67.2246 8.086 67.8546 7.106 69.1006 7.106C70.3606 7.106 70.9906 8.086 70.9906 9.71C70.9906 11.348 70.3606 12.314 69.1006 12.314ZM73.2622 13.056C74.0462 13.056 74.7462 12.608 74.7882 11.32L74.9562 7.26H77.7282V13H78.6382V6.434H74.0882L73.8922 11.208C73.8642 12.02 73.5422 12.216 73.0942 12.216C72.9822 12.216 72.8702 12.216 72.7582 12.188V12.986C72.8842 13.028 73.0662 13.056 73.2622 13.056ZM80.7336 6.434V13H83.1136C84.3036 13 85.2836 12.328 85.2836 10.928C85.2836 9.542 84.3036 8.856 83.1136 8.856H81.6436V6.434H80.7336ZM81.6436 9.64H83.0296C83.7156 9.64 84.3456 10.004 84.3456 10.928C84.3456 11.852 83.7296 12.216 83.0296 12.216H81.6436V9.64ZM86.7902 13H95.3582V6.434H94.4342V12.174H91.5222V6.434H90.6122V12.174H87.7002V6.434H86.7902V13ZM99.876 13.168C101.64 13.168 102.704 11.824 102.704 9.71C102.704 7.596 101.64 6.266 99.876 6.266C98.126 6.266 97.048 7.596 97.048 9.71C97.048 11.824 98.126 13.168 99.876 13.168ZM99.876 12.314C98.63 12.314 98 11.348 98 9.71C98 8.086 98.63 7.106 99.876 7.106C101.136 7.106 101.766 8.086 101.766 9.71C101.766 11.348 101.136 12.314 99.876 12.314ZM107.816 3.452C107.816 4.04 107.536 4.628 106.892 4.628C106.248 4.628 105.968 4.04 105.968 3.452H105.198C105.198 4.502 105.758 5.384 106.892 5.384C108.04 5.384 108.586 4.502 108.586 3.452H107.816ZM105.31 6.434H104.4V13H105.338L108.376 8.114H108.446V13H109.37V6.434H108.418L105.38 11.32H105.31V6.434ZM119.156 6.434H114.298V13H115.208V7.26H118.246V13H119.156V6.434ZM124.253 6.266C123.357 6.266 122.587 6.7 122.195 7.498H122.111V6.434H121.257V15.45H122.167V12.02H122.237C122.657 12.762 123.385 13.168 124.253 13.168C125.919 13.168 126.885 11.866 126.885 9.71C126.885 7.568 125.919 6.266 124.253 6.266ZM124.043 12.314C122.797 12.314 122.167 11.348 122.167 9.71C122.167 8.086 122.797 7.106 124.043 7.106C125.331 7.106 125.947 8.086 125.947 9.71C125.947 11.334 125.331 12.314 124.043 12.314ZM130.993 13.168C132.757 13.168 133.821 11.824 133.821 9.71C133.821 7.596 132.757 6.266 130.993 6.266C129.243 6.266 128.165 7.596 128.165 9.71C128.165 11.824 129.243 13.168 130.993 13.168ZM130.993 12.314C129.747 12.314 129.117 11.348 129.117 9.71C129.117 8.086 129.747 7.106 130.993 7.106C132.253 7.106 132.883 8.086 132.883 9.71C132.883 11.348 132.253 12.314 130.993 12.314ZM135.111 9.71C135.111 11.852 136.161 13.168 137.883 13.168C139.269 13.168 140.221 12.314 140.445 10.984H139.507C139.325 11.852 138.737 12.314 137.883 12.314C136.693 12.314 136.049 11.362 136.049 9.71C136.049 8.058 136.693 7.106 137.883 7.106C138.737 7.106 139.339 7.568 139.507 8.45H140.445C140.221 7.12 139.269 6.266 137.883 6.266C136.161 6.266 135.111 7.568 135.111 9.71ZM146.855 6.434H141.997V13H142.907V7.26H145.945V13H146.855V6.434ZM153.968 9.584C153.968 7.512 152.918 6.266 151.294 6.266C149.586 6.266 148.55 7.554 148.55 9.71C148.55 11.88 149.614 13.168 151.28 13.168C152.582 13.168 153.506 12.468 153.87 11.32H152.904C152.624 11.978 152.092 12.356 151.28 12.356C150.16 12.356 149.502 11.516 149.46 9.878H153.954C153.968 9.794 153.968 9.682 153.968 9.584ZM151.294 7.078C152.33 7.078 152.96 7.778 153.058 9.122H149.488C149.614 7.778 150.23 7.078 151.294 7.078ZM159.394 13H160.514L158.176 9.696L160.514 6.434H159.394L157.42 9.276H156.524V6.434H155.614V13H156.524V10.116H157.42L159.394 13ZM163.194 13H164.104V7.26H166.246V6.434H161.052V7.26H163.194V13ZM174.699 8.296V8.24C175.665 7.862 176.001 6.98 176.001 6.084C176.001 4.656 175.119 3.648 173.411 3.648H170.233V13H173.341C175.273 13 176.113 11.936 176.113 10.466C176.113 9.528 175.707 8.646 174.699 8.296ZM173.257 4.516C174.363 4.516 174.993 5.132 174.993 6.182C174.993 7.232 174.363 7.834 173.257 7.834H171.185V4.516H173.257ZM173.201 12.132H171.185V8.688H173.201C174.433 8.688 175.119 9.276 175.119 10.41C175.119 11.53 174.433 12.132 173.201 12.132ZM177.704 13H179.09V11.6H177.704V13ZM184.036 13.168C186.43 13.168 187.788 11.32 187.788 8.324C187.788 5.328 186.43 3.48 184.036 3.48C181.642 3.48 180.284 5.328 180.284 8.324C180.284 11.32 181.642 13.168 184.036 13.168ZM184.036 12.23C182.272 12.23 181.292 10.83 181.292 8.324C181.292 5.818 182.272 4.418 184.036 4.418C185.8 4.418 186.78 5.818 186.78 8.324C186.78 10.83 185.8 12.23 184.036 12.23ZM188.983 13H190.369V11.6H188.983V13Z" fill="#4B4B4B"/>
<rect y="17" width="250" height="0.3" fill="#4B4B4B"/>
<rect width="250" height="0.3" fill="#4B4B4B"/>
</svg>
