<svg width="16" height="21" viewBox="0 0 16 21" fill="none" xmlns="http://www.w3.org/2000/svg">
<path d="M4.44396 5.54139C4.15607 6.097 4.3577 6.37783 4.4945 6.4488L9.63879 7.5415C10.3449 7.15828 11.7593 6.34926 11.7678 6.17895C11.7763 6.00863 11.5939 5.68294 11.5017 5.54139L10.8417 5.15703C8.82906 5.05365 4.73186 4.98578 4.44396 5.54139Z" fill="#383838"/>
<path d="M15.4731 20.1641C15.4731 19.3361 15.2792 18.5161 14.9022 17.7511C14.5253 16.986 13.9729 16.2909 13.2764 15.7054C12.58 15.1199 11.7532 14.6554 10.8433 14.3385C9.93333 14.0216 8.95806 13.8585 7.97314 13.8585C6.98823 13.8585 6.01296 14.0216 5.10302 14.3385C4.19308 14.6554 3.36628 15.1199 2.66984 15.7054C1.9734 16.2909 1.42096 16.986 1.04405 17.7511C0.667138 18.5161 0.473144 19.3361 0.473145 20.1641H1.85224C1.85224 19.5684 1.99179 18.9786 2.26293 18.4282C2.53407 17.8779 3.23269 16.9636 3.73369 16.5424C4.23468 16.1211 5.25388 15.6922 5.90846 15.4643C6.56305 15.2363 7.26463 15.119 7.97314 15.119C8.68166 15.119 9.38324 15.2363 10.0378 15.4643C10.6924 15.6922 11.9579 16.3595 12.4589 16.7807C12.9198 17.2734 13.3911 17.7095 13.5906 18.3867C13.7902 19.0639 13.8129 19.5684 13.8129 20.1641H15.4731Z" fill="#383838"/>
<path d="M11.7231 9.66425C11.7231 11.7353 10.0442 13.4142 7.97314 13.4142C5.90208 13.4142 4.22314 11.7353 4.22314 9.66425C4.22314 7.59318 5.90208 5.91425 7.97314 5.91425C10.0442 5.91425 11.7231 7.59318 11.7231 9.66425Z" stroke="#383838" stroke-width="1.5"/>
<path d="M11.6445 5.42494C11.4395 4.25295 10.7916 0.668762 9.53443 0.668762C9.23207 0.668762 8.96232 0.789862 8.73534 0.954664C8.51633 1.11253 8.24857 1.19803 7.97318 1.19803C7.69779 1.19803 7.43003 1.11253 7.21102 0.954664C6.98404 0.791291 6.71429 0.668762 6.41193 0.668762C5.15499 0.668762 4.50708 4.25213 4.30169 5.42453C5.13965 5.68164 6.32576 5.89668 7.97296 5.89668C9.62017 5.89668 10.8071 5.68205 11.6445 5.42494ZM14.7307 4.66567C14.6663 4.62474 14.5892 4.60551 14.5118 4.61107C14.4344 4.61663 14.3613 4.64665 14.3041 4.6963C14.2825 4.71468 12.117 6.55017 7.97275 6.55017C3.85161 6.55017 1.66167 4.71345 1.63964 4.69507C1.58235 4.64616 1.5094 4.61679 1.4324 4.61164C1.3554 4.6065 1.2788 4.62588 1.21481 4.6667C1.15082 4.70751 1.10312 4.76741 1.07933 4.83685C1.05553 4.90628 1.05701 4.98125 1.08352 5.04979C1.09929 5.09105 2.7534 9.16412 7.97296 9.16412C13.1925 9.16412 14.8466 5.09105 14.8624 5.04979C14.8892 4.98109 14.8908 4.90588 14.8669 4.83622C14.8431 4.76657 14.7952 4.7065 14.7309 4.66567H14.7307Z" fill="#5aa0a0"/>
</svg>
