<svg width="50" height="41" viewBox="0 0 50 41" fill="none" xmlns="http://www.w3.org/2000/svg">
<path d="M49.6568 10.794V32.8874C49.6568 34.9428 48.8444 36.914 47.3985 38.3674C45.9525 39.8208 43.9913 40.6373 41.9464 40.6373H8.0209C5.97598 40.6373 4.01483 39.8208 2.56886 38.3674C1.12288 36.914 0.310547 34.9428 0.310547 32.8874V10.794L24.2003 24.9236C24.4376 25.0643 24.7081 25.1385 24.9837 25.1385C25.2592 25.1385 25.5297 25.0643 25.767 24.9236L49.6568 10.794ZM41.9464 0.337891C43.8436 0.337591 45.6743 1.04036 47.0883 2.31176C48.5023 3.58315 49.4003 5.33391 49.6105 7.22909L24.9837 21.7896L0.356809 7.22909C0.567019 5.33391 1.46501 3.58315 2.879 2.31176C4.29299 1.04036 6.1237 0.337591 8.0209 0.337891H41.9464Z" fill="#383838"/>
</svg>
