<svg width="101" height="101" viewBox="0 0 101 101" fill="none" xmlns="http://www.w3.org/2000/svg">
<circle cx="50.9531" cy="50.9551" r="48" fill="white" stroke="#4B4B4B" stroke-width="4"/>
<path d="M68.9531 20.9551H32.9531C31.3618 20.9551 29.8357 21.5872 28.7105 22.7124C27.5853 23.8377 26.9531 25.3638 26.9531 26.9551V74.9551C26.9531 76.5464 27.5853 78.0725 28.7105 79.1977C29.8357 80.3229 31.3618 80.9551 32.9531 80.9551H68.9531C70.5444 80.9551 72.0705 80.3229 73.1958 79.1977C74.321 78.0725 74.9531 76.5464 74.9531 74.9551V26.9551C74.9531 25.3638 74.321 23.8377 73.1958 22.7124C72.0705 21.5872 70.5444 20.9551 68.9531 20.9551ZM44.9531 26.9551C45.7488 26.9551 46.5118 27.2711 47.0744 27.8338C47.6371 28.3964 47.9531 29.1594 47.9531 29.9551C47.9531 30.7507 47.6371 31.5138 47.0744 32.0764C46.5118 32.639 45.7488 32.9551 44.9531 32.9551C44.1575 32.9551 43.3944 32.639 42.8318 32.0764C42.2692 31.5138 41.9531 30.7507 41.9531 29.9551C41.9531 29.1594 42.2692 28.3964 42.8318 27.8338C43.3944 27.2711 44.1575 26.9551 44.9531 26.9551V26.9551ZM35.9531 26.9551C36.7488 26.9551 37.5118 27.2711 38.0744 27.8338C38.6371 28.3964 38.9531 29.1594 38.9531 29.9551C38.9531 30.7507 38.6371 31.5138 38.0744 32.0764C37.5118 32.639 36.7488 32.9551 35.9531 32.9551C35.1575 32.9551 34.3944 32.639 33.8318 32.0764C33.2692 31.5138 32.9531 30.7507 32.9531 29.9551C32.9531 29.1594 33.2692 28.3964 33.8318 27.8338C34.3944 27.2711 35.1575 26.9551 35.9531 26.9551V26.9551ZM68.9531 74.9551H32.9531V38.9551H68.9531V74.9551ZM58.9631 60.9451C59.0231 63.0451 58.1831 65.0851 56.6831 66.5851C55.9309 67.338 55.0376 67.9352 54.0545 68.3427C53.0713 68.7502 52.0174 68.9599 50.9531 68.9599C49.8888 68.9599 48.835 68.7502 47.8518 68.3427C46.8686 67.9352 45.9754 67.338 45.2231 66.5851C43.7231 65.0851 42.8831 63.0451 42.9431 60.9451C43.1531 58.8151 43.8431 56.7751 44.9531 54.9451C46.0631 52.4551 47.3831 50.1451 48.9431 47.9551L50.9531 44.9551C56.3231 52.7251 58.9631 58.0351 58.9631 60.9451" fill="#383838"/>
</svg>
