<svg width="101" height="101" viewBox="0 0 101 101" fill="none" xmlns="http://www.w3.org/2000/svg">
<circle cx="50.3877" cy="50.7266" r="48" fill="white" stroke="#4B4B4B" stroke-width="4"/>
<path d="M50.8231 8.52572L86.3685 71.4919C86.5567 71.8252 86.3159 72.2377 85.9331 72.2377H14.8423C14.4595 72.2377 14.2187 71.8252 14.4068 71.4919L49.9523 8.52572C50.1436 8.18678 50.6318 8.18678 50.8231 8.52572Z" fill="#EDEDED" stroke="#383838" stroke-width="3"/>
<path d="M54.3916 31.7422L43.6025 42.161L42.2824 43.4517L43.9431 44.3408L55.1712 50.5296L43.6509 61.0382V54.5373H40.5264V65.9348H53.0246V63.0854H45.8959L58.8347 51.289L60.2486 49.9968L58.5394 49.0608L47.2129 42.8277L56.6381 33.7026L54.3916 31.7422Z" fill="#383838"/>
</svg>
